<svg width="25" height="26" viewBox="0 0 25 26" fill="none" xmlns="http://www.w3.org/2000/svg">
<path d="M12.5 0.5C5.60526 0.5 0 6.10526 0 13C0 19.8947 5.60526 25.5 12.5 25.5C19.3947 25.5 25 19.8947 25 13C25 6.10526 19.3947 0.5 12.5 0.5ZM12.5 7.23684C14.6579 7.23684 16.4211 9 16.4211 11.1579C16.4211 13.3158 14.6579 15.0789 12.5 15.0789C10.3421 15.0789 8.57895 13.3158 8.57895 11.1579C8.57895 9 10.3421 7.23684 12.5 7.23684ZM6.18421 21.0263C7.10526 18.4211 9.57895 16.5526 12.5 16.5526C15.4211 16.5526 17.8947 18.4211 18.8158 21.0263C17.0789 22.3947 14.8684 23.2368 12.5 23.2368C10.1053 23.2105 7.92105 22.3947 6.18421 21.0263Z" fill="#517CE7"/>
</svg>
